Coordinates
version=1
nRows=8
nColumns=40
inDegrees=yes

Units are S.I. units (second, meters, Newtons, ...)
If the header above contains a line with 'inDegrees', this indicates whether rotational values are in degrees (yes) or radians (no).

endheader
time	pelvis_tilt	pelvis_list	pelvis_rotation	pelvis_tx	pelvis_ty	pelvis_tz	hip_flexion_r	hip_adduction_r	hip_rotation_r	knee_angle_r	knee_angle_r_beta	ankle_angle_r	subtalar_angle_r	mtp_angle_r	hip_flexion_l	hip_adduction_l	hip_rotation_l	knee_angle_l	knee_angle_l_beta	ankle_angle_l	subtalar_angle_l	mtp_angle_l	lumbar_extension	lumbar_bending	lumbar_rotation	arm_flex_r	arm_add_r	arm_rot_r	elbow_flex_r	pro_sup_r	wrist_flex_r	wrist_dev_r	arm_flex_l	arm_add_l	arm_rot_l	elbow_flex_l	pro_sup_l	wrist_flex_l	wrist_dev_l
      0.64000000	      0.88703815	      7.70539629	    -87.37485628	      0.22717887	      0.88176428	      0.11399766	     33.86616798	     -2.77749739	     -3.74001709	      5.75015409	      0.10035912	      4.94770328	      0.00000000	      0.00000000	    -15.38530827	      1.49663936	     10.49379078	      6.48350772	      0.11315856	     13.70649985	      0.00000000	      0.00000000	     -3.16096674	     -1.97276582	     -9.63534280	     -0.00000000	      0.00000000	     -0.00000000	      0.00000000	      0.00000000	     -0.00000000	      0.00000000	      0.00000000	     -0.00000000	      0.00000000	      0.00000000	      0.00000000	      0.00000000	      0.00000000
      0.65000000	      0.95855434	      7.60863662	    -87.41141078	      0.22605993	      0.87981661	      0.13156646	     33.70796994	     -2.52824851	     -3.05480289	      6.63396632	      0.11578455	      1.94117889	      0.00000000	      0.00000000	    -14.86255395	      1.53557608	      9.71547092	      9.71236413	      0.16951273	     13.45833986	      0.00000000	      0.00000000	     -3.12607756	     -1.91334001	     -9.52934891	      0.00000000	      0.00000000	      0.00000000	      0.00000000	      0.00000000	      0.00000000	      0.00000000	      0.00000000	      0.00000000	      0.00000000	      0.00000000	      0.00000000	      0.00000000	      0.00000000
      0.66000000	      0.89789323	      7.37608184	    -87.45274568	      0.22486806	      0.87855750	      0.14929157	     33.46634593	     -2.19377530	     -2.58009034	      7.99789251	      0.13958956	     -0.47525911	      0.00000000	      0.00000000	    -14.26125313	      1.40256608	      9.00074550	     13.13459464	      0.22924192	     12.17307652	      0.00000000	      0.00000000	     -3.22162376	     -1.68709212	     -9.37299626	      0.00000000	      0.00000000	      0.00000000	      0.00000000	      0.00000000	      0.00000000	      0.00000000	      0.00000000	      0.00000000	      0.00000000	      0.00000000	      0.00000000	      0.00000000	      0.00000000
      0.67000000	      0.79613249	      7.10385481	    -87.58480742	      0.22347411	      0.87784278	      0.16698924	     33.27524264	     -1.82622960	     -2.14348721	      9.73932467	      0.16998328	     -2.58495811	      0.00000000	      0.00000000	    -13.33952402	      1.19295833	      7.96926706	     17.02266952	      0.29710163	     10.30241690	      0.00000000	      0.00000000	     -3.36194680	     -1.40696711	     -9.07711663	      0.00000000	      0.00000000	      0.00000000	      0.00000000	      0.00000000	      0.00000000	      0.00000000	      0.00000000	      0.00000000	      0.00000000	      0.00000000	      0.00000000	      0.00000000	      0.00000000
      0.68000000	      0.62583462	      6.67841894	    -87.77595524	      0.22187899	      0.87780492	      0.18471627	     33.05971218	     -1.42113632	     -1.88974252	     11.97030201	      0.20892118	     -3.97195533	      0.00000000	      0.00000000	    -12.24690424	      0.82476395	      6.62131060	     21.29844862	      0.37172805	      7.80337805	     -0.00000000	      0.00000000	     -3.68326523	     -1.03823428	     -8.77979500	      0.00000000	     -0.00000000	      0.00000000	      0.00000000	      0.00000000	     -0.00000000	     -0.00000000	      0.00000000	     -0.00000000	     -0.00000000	      0.00000000	      0.00000000	     -0.00000000	     -0.00000000
      0.69000000	      0.40060202	      6.45499525	    -88.02196661	      0.21994290	      0.87785454	      0.20217406	     33.18090390	     -0.95316878	     -1.52475040	     14.57335116	      0.25435296	     -4.45817033	      0.00000000	      0.00000000	    -10.53780652	      0.30344897	      5.12654843	     26.07538299	      0.45510129	      4.75487203	      0.00000000	      0.00000000	     -3.79424544	     -0.65915963	     -8.26983217	      0.00000000	      0.00000000	      0.00000000	      0.00000000	      0.00000000	      0.00000000	      0.00000000	      0.00000000	      0.00000000	      0.00000000	      0.00000000	      0.00000000	      0.00000000	      0.00000000
      0.70000000	      0.10682646	      6.11317803	    -88.25200053	      0.21792408	      0.87844996	      0.21956818	     33.18948132	     -0.46118840	     -1.33519664	     17.40392750	      0.30375584	     -3.98237720	      0.00000000	      0.00000000	     -8.69148108	     -0.42488414	      3.57014610	     31.11397782	      0.54304136	      1.37832224	      0.00000000	      0.00000000	     -4.04656781	     -0.21044629	     -7.81365952	      0.00000000	      0.00000000	      0.00000000	      0.00000000	      0.00000000	      0.00000000	      0.00000000	      0.00000000	      0.00000000	      0.00000000	      0.00000000	      0.00000000	      0.00000000	      0.00000000
      0.71000000	     -0.24252370	      5.81294216	    -88.50184804	      0.21574528	      0.87936670	      0.23673813	     33.13869241	      0.09096748	     -1.21185556	     20.15849839	      0.35183217	     -2.79409473	      0.00000000	      0.00000000	     -6.57544013	     -1.32065654	      2.06096954	     36.35371966	      0.63449210	     -2.04774681	      0.00000000	      0.00000000	     -4.28596835	      0.27390552	     -7.36603247	      0.00000000	      0.00000000	      0.00000000	      0.00000000	      0.00000000	      0.00000000	      0.00000000	      0.00000000	      0.00000000	      0.00000000	      0.00000000	      0.00000000	      0.00000000	      0.00000000
